<svg xmlns="http://www.w3.org/2000/svg" xmlns:xlink="http://www.w3.org/1999/xlink" width="40" zoomAndPan="magnify" viewBox="0 0 30 30.000001" height="40" preserveAspectRatio="xMidYMid meet" version="1.0"><defs><clipPath id="116fd9d186"><path d="M 0.484375 0 L 29.515625 0 L 29.515625 29.03125 L 0.484375 29.03125 Z M 0.484375 0 " clip-rule="nonzero"/></clipPath><clipPath id="a3287943f9"><path d="M 15 0 C 6.984375 0 0.484375 6.5 0.484375 14.515625 C 0.484375 22.53125 6.984375 29.03125 15 29.03125 C 23.015625 29.03125 29.515625 22.53125 29.515625 14.515625 C 29.515625 6.5 23.015625 0 15 0 Z M 15 0 " clip-rule="nonzero"/></clipPath><clipPath id="1da528bd9f"><path d="M 0.484375 0 L 29.515625 0 L 29.515625 29.03125 L 0.484375 29.03125 Z M 0.484375 0 " clip-rule="nonzero"/></clipPath><clipPath id="d0e4807557"><path d="M 15 0 C 6.984375 0 0.484375 6.5 0.484375 14.515625 C 0.484375 22.53125 6.984375 29.03125 15 29.03125 C 23.015625 29.03125 29.515625 22.53125 29.515625 14.515625 C 29.515625 6.5 23.015625 0 15 0 Z M 15 0 " clip-rule="nonzero"/></clipPath><clipPath id="142b5500ab"><rect x="0" width="30" y="0" height="30"/></clipPath><clipPath id="97756e8869"><path d="M 7.953125 7.496094 L 21.558594 7.496094 L 21.558594 21.285156 L 7.953125 21.285156 Z M 7.953125 7.496094 " clip-rule="nonzero"/></clipPath></defs><g clip-path="url(#116fd9d186)"><g clip-path="url(#a3287943f9)"><g transform="matrix(1, 0, 0, 1, 0, 0.000000000000005692)"><g clip-path="url(#142b5500ab)"><g clip-path="url(#1da528bd9f)"><g clip-path="url(#d0e4807557)"><path fill="#000000" d="M 0.484375 0 L 29.515625 0 L 29.515625 29.03125 L 0.484375 29.03125 Z M 0.484375 0 " fill-opacity="1" fill-rule="nonzero"/></g></g></g></g></g></g><g clip-path="url(#97756e8869)"><path fill="#ffffff" d="M 10.695312 19.085938 L 18.550781 19.085938 C 17.996094 19.535156 17.382812 19.878906 16.707031 20.117188 C 16.03125 20.355469 15.335938 20.472656 14.621094 20.472656 C 13.90625 20.472656 13.210938 20.355469 12.535156 20.117188 C 11.859375 19.878906 11.246094 19.535156 10.695312 19.085938 M 9.753906 18.128906 C 9.347656 17.621094 9.035156 17.066406 8.8125 16.460938 L 20.429688 16.460938 C 20.207031 17.0625 19.894531 17.617188 19.492188 18.125 Z M 14.621094 8.230469 C 15.078125 8.230469 15.527344 8.277344 15.972656 8.375 C 16.417969 8.472656 16.847656 8.617188 17.261719 8.8125 C 17.675781 9.003906 18.0625 9.238281 18.421875 9.511719 C 18.785156 9.789062 19.109375 10.101562 19.398438 10.449219 C 19.691406 10.796875 19.941406 11.171875 20.148438 11.574219 C 20.351562 11.976562 20.511719 12.394531 20.625 12.832031 C 20.738281 13.269531 20.800781 13.710938 20.816406 14.164062 C 20.828125 14.613281 20.792969 15.058594 20.707031 15.503906 L 8.539062 15.503906 C 8.453125 15.058594 8.414062 14.613281 8.429688 14.164062 C 8.441406 13.710938 8.503906 13.269531 8.617188 12.832031 C 8.730469 12.394531 8.890625 11.976562 9.097656 11.574219 C 9.304688 11.171875 9.550781 10.796875 9.84375 10.449219 C 10.132812 10.101562 10.460938 9.789062 10.820312 9.515625 C 11.179688 9.238281 11.566406 9.003906 11.980469 8.8125 C 12.394531 8.621094 12.824219 8.472656 13.269531 8.375 C 13.714844 8.277344 14.164062 8.230469 14.621094 8.230469 M 14.621094 7.5 C 14.164062 7.5 13.714844 7.546875 13.265625 7.632812 C 12.820312 7.722656 12.386719 7.851562 11.964844 8.023438 C 11.546875 8.195312 11.144531 8.40625 10.765625 8.65625 C 10.390625 8.90625 10.039062 9.191406 9.714844 9.507812 C 9.394531 9.828125 9.105469 10.171875 8.855469 10.546875 C 8.601562 10.921875 8.386719 11.316406 8.214844 11.730469 C 8.039062 12.148438 7.90625 12.574219 7.820312 13.015625 C 7.730469 13.457031 7.683594 13.902344 7.683594 14.351562 C 7.683594 14.800781 7.730469 15.246094 7.820312 15.6875 C 7.90625 16.128906 8.039062 16.558594 8.214844 16.972656 C 8.386719 17.390625 8.601562 17.785156 8.855469 18.160156 C 9.109375 18.53125 9.394531 18.878906 9.71875 19.195312 C 10.039062 19.515625 10.390625 19.796875 10.769531 20.046875 C 11.148438 20.296875 11.546875 20.507812 11.96875 20.679688 C 12.386719 20.851562 12.820312 20.984375 13.269531 21.070312 C 13.714844 21.160156 14.167969 21.203125 14.621094 21.203125 C 15.078125 21.203125 15.527344 21.160156 15.976562 21.070312 C 16.421875 20.984375 16.855469 20.851562 17.277344 20.679688 C 17.695312 20.507812 18.097656 20.296875 18.476562 20.046875 C 18.855469 19.796875 19.203125 19.511719 19.527344 19.195312 C 19.847656 18.878906 20.136719 18.53125 20.390625 18.15625 C 20.640625 17.785156 20.855469 17.386719 21.03125 16.972656 C 21.203125 16.558594 21.335938 16.128906 21.425781 15.6875 C 21.511719 15.246094 21.558594 14.800781 21.558594 14.351562 C 21.558594 13.902344 21.511719 13.457031 21.421875 13.015625 C 21.332031 12.574219 21.203125 12.144531 21.027344 11.730469 C 20.851562 11.316406 20.640625 10.921875 20.386719 10.546875 C 20.132812 10.171875 19.84375 9.828125 19.523438 9.507812 C 19.203125 9.191406 18.851562 8.90625 18.472656 8.65625 C 18.09375 8.40625 17.695312 8.195312 17.273438 8.023438 C 16.851562 7.851562 16.417969 7.722656 15.972656 7.632812 C 15.527344 7.546875 15.074219 7.503906 14.621094 7.5 " fill-opacity="1" fill-rule="nonzero"/></g></svg>