<svg xmlns="http://www.w3.org/2000/svg" xmlns:xlink="http://www.w3.org/1999/xlink" width="40" zoomAndPan="magnify" viewBox="0 0 30 30.000001" height="40" preserveAspectRatio="xMidYMid meet" version="1.0"><defs><clipPath id="7d4d16cf29"><path d="M 0.484375 0 L 29.515625 0 L 29.515625 29.03125 L 0.484375 29.03125 Z M 0.484375 0 " clip-rule="nonzero"/></clipPath><clipPath id="89789f922f"><path d="M 0.484375 0 L 29.515625 0 L 29.515625 29.03125 L 0.484375 29.03125 Z M 0.484375 0 " clip-rule="nonzero"/></clipPath><clipPath id="bf0ce9fc7e"><path d="M 15 0 C 6.984375 0 0.484375 6.5 0.484375 14.515625 C 0.484375 22.53125 6.984375 29.03125 15 29.03125 C 23.015625 29.03125 29.515625 22.53125 29.515625 14.515625 C 29.515625 6.5 23.015625 0 15 0 Z M 15 0 " clip-rule="nonzero"/></clipPath><clipPath id="fb14b1a3af"><path d="M 0.484375 0 L 29.515625 0 L 29.515625 29.03125 L 0.484375 29.03125 Z M 0.484375 0 " clip-rule="nonzero"/></clipPath><clipPath id="0576a0f0c9"><path d="M 15 0 C 6.984375 0 0.484375 6.5 0.484375 14.515625 C 0.484375 22.53125 6.984375 29.03125 15 29.03125 C 23.015625 29.03125 29.515625 22.53125 29.515625 14.515625 C 29.515625 6.5 23.015625 0 15 0 Z M 15 0 " clip-rule="nonzero"/></clipPath><clipPath id="c074244494"><rect x="0" width="30" y="0" height="30"/></clipPath><clipPath id="590aecc679"><rect x="0" width="30" y="0" height="30"/></clipPath></defs><g clip-path="url(#7d4d16cf29)"><g transform="matrix(1, 0, 0, 1, 0, 0.000000000000005692)"><g clip-path="url(#590aecc679)"><g clip-path="url(#89789f922f)"><g clip-path="url(#bf0ce9fc7e)"><g transform="matrix(1, 0, 0, 1, 0, 0.000000000000005692)"><g clip-path="url(#c074244494)"><g clip-path="url(#fb14b1a3af)"><g clip-path="url(#0576a0f0c9)"><path fill="#a8101d" d="M 0.484375 0 L 29.515625 0 L 29.515625 29.03125 L 0.484375 29.03125 Z M 0.484375 0 " fill-opacity="1" fill-rule="nonzero"/></g></g></g></g></g></g><path fill="#ffffff" d="M 8.554688 13.667969 L 8.679688 15.660156 L 8.023438 13.667969 L 7.117188 13.636719 L 7.042969 14.511719 L 7.238281 14.570312 L 7.0625 17.875 L 8.023438 17.796875 L 7.964844 15.742188 L 8.640625 17.953125 L 9.425781 18.046875 L 9.546875 13.578125 Z M 7.128906 14.445312 L 7.1875 13.722656 L 7.945312 13.753906 L 7.273438 13.800781 Z M 7.148438 17.769531 L 7.316406 14.550781 L 7.238281 17.6875 L 7.78125 17.75 Z M 7.929688 15.378906 L 8.28125 16.324219 L 8.699219 17.863281 Z M 8.851562 15.808594 L 8.660156 15.75 L 8.757812 15.730469 L 8.636719 13.746094 L 9.445312 13.675781 L 8.726562 13.824219 Z M 12.058594 13.878906 L 11.152344 13.617188 L 10.304688 14.542969 L 10.207031 17.335938 L 11.035156 18.105469 L 12.226562 17.921875 L 12.597656 15.613281 Z M 11.925781 17.132812 L 11.234375 17.117188 L 11.84375 17.054688 L 11.882812 15.605469 L 11.691406 14.933594 L 11.972656 15.683594 Z M 11.210938 17.015625 L 11.210938 14.972656 L 11.574219 14.933594 L 11.765625 15.601562 L 11.726562 16.957031 Z M 11.300781 13.8125 L 10.511719 14.671875 L 10.414062 17.296875 L 11.09375 18.027344 L 10.328125 17.308594 L 10.425781 14.59375 L 11.210938 13.734375 L 12.039062 14.023438 Z M 13.972656 14.925781 L 14.027344 16.355469 L 14.640625 16.355469 L 14.695312 17.25 L 14.082031 17.304688 L 13.804688 16.914062 L 13.714844 14.109375 L 14.136719 13.722656 L 14.199219 14.171875 L 15.253906 13.886719 L 14.886719 12.429688 L 13.917969 12.292969 L 12.898438 13.832031 L 13.0625 17.976562 L 13.917969 18.792969 L 14.789062 18.515625 L 14.769531 19.324219 L 15.402344 19.214844 L 15.417969 14.675781 Z M 14.265625 14.027344 L 14.222656 13.6875 L 14.300781 13.914062 L 14.484375 13.980469 Z M 12.984375 13.886719 L 13.949219 12.429688 L 14.824219 12.550781 L 14.027344 12.53125 L 13.0625 13.988281 L 13.148438 17.910156 Z M 14.058594 17.445312 L 14.792969 17.371094 L 14.726562 16.335938 L 14.871094 17.480469 Z M 14.859375 19.183594 L 14.878906 18.488281 L 14.933594 19.101562 L 15.152344 19.167969 Z M 14.144531 15.152344 L 14.109375 16.234375 L 14.066406 15.042969 L 15.339844 14.824219 Z M 17.890625 15.4375 L 18.539062 14.199219 L 17.695312 11.078125 L 15.644531 11.027344 L 15.503906 12.660156 L 15.859375 12.660156 L 15.898438 18.105469 L 16.867188 17.960938 L 16.902344 16.015625 L 17.277344 15.78125 L 17.511719 18.074219 L 18.675781 17.351562 Z M 15.988281 17.929688 L 15.945312 12.617188 L 16.066406 17.816406 L 16.476562 17.917969 Z M 16.832031 14.777344 L 17.335938 14.238281 L 17.121094 12.804688 L 17.425781 14.363281 Z M 16.828125 12.691406 L 17.042969 12.867188 L 17.238281 14.199219 L 16.847656 14.621094 Z M 17.359375 15.71875 L 17.527344 16.707031 L 17.578125 17.855469 Z M 15.804688 11.265625 L 15.605469 12.492188 L 15.71875 11.152344 L 17.621094 11.203125 Z M 20.3125 11.136719 L 19.015625 11.222656 L 18.925781 12.1875 L 20.34375 12.332031 Z M 19.148438 11.347656 L 18.996094 12.082031 L 19.066406 11.277344 L 20.199219 11.199219 Z M 19.039062 12.609375 L 19.019531 13.390625 L 19.277344 13.421875 L 19.242188 16.097656 L 20.125 16.050781 L 20.304688 12.65625 Z M 19.304688 15.980469 L 19.339844 13.386719 L 19.390625 15.898438 L 19.796875 15.960938 Z M 19.179688 12.746094 L 19.085938 13.292969 L 19.097656 12.671875 L 20.1875 12.714844 Z M 22.371094 13.363281 L 20.554688 13.324219 L 20.496094 14.6875 L 20.71875 14.648438 L 20.699219 17.695312 L 21.582031 17.585938 L 21.640625 16.285156 L 22.460938 16.191406 L 22.953125 15.164062 Z M 20.792969 17.589844 L 20.804688 14.625 L 20.875 17.488281 L 21.355469 17.539062 Z M 21.621094 14.351562 L 21.859375 14.328125 L 22.046875 15.230469 L 21.726562 15.507812 Z M 21.734375 15.613281 L 22.144531 15.25 L 21.953125 14.308594 L 22.226562 15.324219 Z M 20.722656 13.476562 L 20.59375 14.574219 L 20.640625 13.40625 L 22.308594 13.4375 Z M 21.339844 9.875 C 21.335938 9.78125 21.257812 9.707031 21.160156 9.707031 L 16.261719 9.863281 C 15.890625 9.875 15.519531 9.933594 15.160156 10.039062 L 13.476562 10.546875 C 12.832031 10.734375 12.164062 10.839844 11.496094 10.859375 L 7.199219 10.980469 C 7.109375 10.984375 7.039062 11.058594 7.042969 11.148438 L 7.066406 11.652344 C 7.070312 11.738281 7.144531 11.808594 7.230469 11.804688 L 7.320312 11.800781 L 7.320312 12.980469 C 7.320312 13.046875 7.347656 13.109375 7.398438 13.152344 C 7.453125 13.195312 7.519531 13.214844 7.582031 13.203125 L 7.910156 13.144531 C 7.917969 13.144531 7.929688 13.144531 7.9375 13.144531 L 8.773438 13.285156 C 8.785156 13.289062 8.796875 13.289062 8.808594 13.289062 C 8.828125 13.289062 8.84375 13.289062 8.859375 13.285156 C 9.140625 13.222656 9.324219 13.183594 9.4375 13.15625 C 9.441406 13.15625 9.441406 13.15625 9.445312 13.15625 C 9.566406 13.128906 9.613281 13.117188 9.632812 13.113281 C 9.699219 13.117188 10.199219 13.175781 10.671875 13.230469 C 10.695312 13.234375 10.71875 13.234375 10.742188 13.226562 L 11.953125 12.976562 L 12.730469 13.042969 L 12.738281 13.039062 C 12.84375 13.015625 12.914062 12.925781 12.914062 12.820312 L 12.914062 11.445312 C 12.984375 11.425781 13.050781 11.402344 13.117188 11.382812 L 14.660156 10.875 C 15.15625 10.710938 15.675781 10.621094 16.199219 10.609375 L 21.1875 10.484375 C 21.285156 10.480469 21.359375 10.398438 21.355469 10.304688 Z M 8.011719 13.109375 L 7.875 12.980469 L 8.035156 12.386719 Z M 8.667969 13.171875 L 8.691406 12.03125 L 8.84375 12.683594 Z M 9.601562 13.0625 L 9.625 11.921875 L 9.777344 11.960938 L 9.605469 13.0625 Z M 7.613281 11.957031 L 7.5 13.0625 L 7.5 11.792969 L 10.496094 11.710938 Z M 10.675781 13.171875 L 10.789062 11.949219 L 10.90625 13.109375 Z M 11 11.796875 L 10.703125 11.710938 L 12.507812 11.582031 Z M 12.726562 12.902344 L 12.074219 12.847656 L 12.628906 12.746094 L 12.726562 11.527344 Z M 21.148438 10.242188 L 21.015625 10.019531 L 17.183594 9.984375 L 21.148438 9.894531 Z M 21.148438 10.242188 " fill-opacity="1" fill-rule="nonzero"/></g></g></g></svg>