<svg xmlns="http://www.w3.org/2000/svg" xmlns:xlink="http://www.w3.org/1999/xlink" width="350" zoomAndPan="magnify" viewBox="0 0 262.5 262.500001" height="350" preserveAspectRatio="xMidYMid meet" version="1.0"><defs><clipPath id="3d8679be47"><path d="M 135 83 L 141 83 L 141 89 L 135 89 Z M 135 83 " clip-rule="nonzero"/></clipPath><clipPath id="672b7b08e9"><path d="M 135.203125 83.816406 L 140.050781 82.890625 L 140.976562 87.738281 L 136.128906 88.664062 Z M 135.203125 83.816406 " clip-rule="nonzero"/></clipPath><clipPath id="48cf54c90c"><path d="M 137.628906 83.355469 C 136.289062 83.609375 135.410156 84.902344 135.667969 86.238281 C 135.921875 87.578125 137.214844 88.457031 138.550781 88.203125 C 139.890625 87.945312 140.769531 86.652344 140.515625 85.316406 C 140.257812 83.976562 138.964844 83.097656 137.628906 83.355469 Z M 137.628906 83.355469 " clip-rule="nonzero"/></clipPath><clipPath id="78c823f65b"><path d="M 0.34375 0 L 5.851562 0 L 5.851562 5.632812 L 0.34375 5.632812 Z M 0.34375 0 " clip-rule="nonzero"/></clipPath><clipPath id="f55f69e8cd"><path d="M 0.203125 0.816406 L 5.050781 -0.109375 L 5.976562 4.738281 L 1.128906 5.664062 Z M 0.203125 0.816406 " clip-rule="nonzero"/></clipPath><clipPath id="abf50eae2a"><path d="M 2.628906 0.355469 C 1.289062 0.609375 0.410156 1.902344 0.667969 3.238281 C 0.921875 4.578125 2.214844 5.457031 3.550781 5.203125 C 4.890625 4.945312 5.769531 3.652344 5.515625 2.316406 C 5.257812 0.976562 3.964844 0.0976562 2.628906 0.355469 Z M 2.628906 0.355469 " clip-rule="nonzero"/></clipPath><clipPath id="f302f7ef46"><rect x="0" width="6" y="0" height="6"/></clipPath><clipPath id="dcb53626f6"><path d="M 0 0 L 262 0 L 262 262 L 0 262 Z M 0 0 " clip-rule="nonzero"/></clipPath><clipPath id="2d318ce465"><path d="M 131 0 C 58.652344 0 0 58.652344 0 131 C 0 203.351562 58.652344 262 131 262 C 203.351562 262 262 203.351562 262 131 C 262 58.652344 203.351562 0 131 0 Z M 131 0 " clip-rule="nonzero"/></clipPath><clipPath id="9c116b9b6c"><path d="M 0 0 L 262 0 L 262 262 L 0 262 Z M 0 0 " clip-rule="nonzero"/></clipPath><clipPath id="90f5b4ea17"><path d="M 131 0 C 58.652344 0 0 58.652344 0 131 C 0 203.351562 58.652344 262 131 262 C 203.351562 262 262 203.351562 262 131 C 262 58.652344 203.351562 0 131 0 Z M 131 0 " clip-rule="nonzero"/></clipPath><clipPath id="46f1e4fdc0"><rect x="0" width="262" y="0" height="262"/></clipPath></defs><g clip-path="url(#3d8679be47)"><g clip-path="url(#672b7b08e9)"><g clip-path="url(#48cf54c90c)"><g transform="matrix(1, 0, 0, 1, 135, 83)"><g clip-path="url(#f302f7ef46)"><g clip-path="url(#78c823f65b)"><g clip-path="url(#f55f69e8cd)"><g clip-path="url(#abf50eae2a)"><path fill="#000000" d="M 0.203125 0.816406 L 5.050781 -0.109375 L 5.976562 4.738281 L 1.128906 5.664062 Z M 0.203125 0.816406 " fill-opacity="1" fill-rule="nonzero"/></g></g></g></g></g></g></g></g><g clip-path="url(#dcb53626f6)"><g clip-path="url(#2d318ce465)"><g transform="matrix(1, 0, 0, 1, 0, -0.00000000000000941)"><g clip-path="url(#46f1e4fdc0)"><g clip-path="url(#9c116b9b6c)"><g clip-path="url(#90f5b4ea17)"><rect x="-57.75" width="378" fill="#a8101d" height="378.000001" y="-57.75" fill-opacity="1"/></g></g></g></g></g></g><path fill="#ffffff" d="M 72.851562 123.359375 L 73.96875 141.308594 L 68.027344 123.359375 L 59.847656 123.066406 L 59.199219 130.953125 L 60.964844 131.480469 L 59.375 161.320312 L 68.027344 160.613281 L 67.496094 142.074219 L 73.617188 162.027344 L 80.679688 162.847656 L 81.796875 122.539062 Z M 59.964844 130.363281 L 60.496094 123.828125 L 67.320312 124.125 L 61.257812 124.539062 Z M 60.140625 160.375 L 61.667969 131.304688 L 60.964844 159.609375 L 65.847656 160.199219 Z M 67.203125 138.777344 L 70.378906 147.308594 L 74.144531 161.199219 Z M 75.5 142.660156 L 73.792969 142.128906 L 74.675781 141.953125 L 73.558594 124.0625 L 80.855469 123.414062 L 74.382812 124.769531 Z M 104.449219 125.242188 L 96.265625 122.886719 L 88.617188 131.246094 L 87.734375 156.433594 L 95.207031 163.375 L 105.976562 161.730469 L 109.332031 140.894531 Z M 103.269531 154.609375 L 97.03125 154.492188 L 102.503906 153.902344 L 102.859375 140.835938 L 101.152344 134.777344 L 103.683594 141.546875 Z M 96.796875 153.546875 L 96.796875 135.128906 L 100.089844 134.777344 L 101.796875 140.777344 L 101.445312 153.019531 L 96.796875 153.550781 Z M 97.621094 124.652344 L 90.5 132.421875 L 89.617188 156.078125 L 95.738281 162.671875 L 88.851562 156.195312 L 89.734375 131.714844 L 96.796875 123.949219 L 104.269531 126.539062 Z M 121.742188 134.679688 L 122.238281 147.582031 L 127.769531 147.582031 L 128.265625 155.6875 L 122.730469 156.183594 L 120.210938 152.628906 L 119.386719 127.320312 L 123.222656 123.847656 L 123.773438 127.902344 L 133.304688 125.335938 L 129.964844 112.1875 L 121.25 110.949219 L 112.046875 124.84375 L 113.523438 162.222656 L 121.25 169.582031 L 129.085938 167.101562 L 128.921875 174.378906 L 134.621094 173.386719 L 134.785156 132.453125 L 121.742188 134.683594 Z M 124.375 126.578125 L 123.988281 123.515625 L 124.703125 125.582031 L 126.34375 126.164062 Z M 112.8125 125.335938 L 121.523438 112.1875 L 129.414062 113.261719 L 122.238281 113.097656 L 113.523438 126.246094 L 114.289062 161.640625 L 112.808594 125.335938 Z M 122.507812 157.421875 L 129.140625 156.761719 L 128.539062 147.414062 L 129.851562 157.753906 Z M 129.742188 173.136719 L 129.90625 166.851562 L 130.402344 172.390625 L 132.375 172.972656 Z M 123.277344 136.75 L 122.949219 146.507812 L 122.566406 135.757812 L 134.070312 133.773438 Z M 157.070312 139.320312 L 162.957031 128.132812 L 155.3125 99.976562 L 136.8125 99.507812 L 135.539062 114.242188 L 138.753906 114.242188 L 139.117188 163.378906 L 147.851562 162.074219 L 148.15625 144.542969 L 151.550781 142.402344 L 153.675781 163.097656 L 164.167969 156.570312 L 157.074219 139.324219 Z M 139.90625 161.792969 L 139.539062 113.867188 L 140.632812 160.765625 L 144.332031 161.699219 Z M 147.546875 133.355469 L 152.097656 128.507812 L 150.15625 115.546875 L 152.886719 129.625 Z M 147.488281 114.519531 L 149.425781 116.105469 L 151.1875 128.132812 L 147.667969 131.957031 Z M 152.277344 141.839844 L 153.792969 150.789062 L 154.28125 161.140625 Z M 138.269531 101.652344 L 136.449219 112.75 L 137.480469 100.628906 L 154.644531 101.09375 Z M 178.945312 100.488281 L 167.234375 101.277344 L 166.441406 109.988281 L 179.226562 111.292969 Z M 168.421875 102.410156 L 167.0625 109.03125 L 167.6875 101.789062 L 177.925781 101.054688 L 168.421875 102.414062 Z M 167.460938 113.78125 L 167.289062 120.851562 L 169.609375 121.132812 L 169.269531 145.289062 L 177.246094 144.835938 L 178.886719 114.230469 Z M 169.835938 144.214844 L 170.175781 120.792969 L 170.628906 143.476562 L 174.304688 144.042969 Z M 168.707031 115.027344 L 167.855469 119.949219 L 167.96875 114.347656 L 177.8125 114.742188 Z M 197.53125 120.59375 L 181.125 120.253906 L 180.617188 132.53125 L 182.597656 132.191406 L 182.425781 159.683594 L 190.402344 158.722656 L 190.910156 146.957031 L 198.320312 146.105469 L 202.789062 136.832031 Z M 183.273438 158.722656 L 183.386719 131.964844 L 184.007812 157.816406 L 188.367188 158.269531 Z M 190.742188 129.53125 L 192.890625 129.304688 L 194.585938 137.449219 L 191.703125 139.941406 Z M 191.757812 140.902344 L 195.492188 137.621094 L 193.738281 129.136719 L 196.230469 138.300781 Z M 182.652344 121.613281 L 181.464844 131.511719 L 181.917969 120.992188 L 196.964844 121.273438 Z M 188.214844 89.121094 C 188.183594 88.261719 187.460938 87.585938 186.597656 87.613281 L 142.390625 89 C 139.023438 89.105469 135.6875 89.648438 132.460938 90.613281 L 117.238281 95.179688 C 111.425781 96.878906 105.417969 97.828125 99.367188 98 L 60.609375 99.101562 C 59.796875 99.125 59.164062 99.804688 59.199219 100.617188 L 59.398438 105.148438 C 59.433594 105.945312 60.105469 106.5625 60.898438 106.535156 L 61.695312 106.507812 L 61.695312 117.148438 C 61.695312 117.746094 61.957031 118.3125 62.417969 118.695312 C 62.875 119.082031 63.476562 119.246094 64.070312 119.144531 L 67.011719 118.632812 C 67.097656 118.617188 67.1875 118.617188 67.273438 118.632812 L 74.804688 119.898438 C 74.917969 119.917969 75.03125 119.925781 75.140625 119.925781 C 75.285156 119.925781 75.429688 119.910156 75.570312 119.878906 C 78.136719 119.320312 79.769531 118.964844 80.8125 118.738281 C 80.828125 118.734375 80.84375 118.730469 80.859375 118.726562 C 81.949219 118.488281 82.378906 118.390625 82.550781 118.351562 C 83.179688 118.386719 87.660156 118.902344 91.945312 119.40625 C 92.160156 119.433594 92.378906 119.421875 92.59375 119.378906 L 103.492188 117.105469 L 110.507812 117.691406 L 110.601562 117.671875 C 111.535156 117.464844 112.1875 116.652344 112.1875 115.695312 L 112.1875 103.273438 C 112.800781 103.101562 113.414062 102.914062 114.023438 102.710938 L 127.9375 98.132812 C 132.425781 96.65625 137.105469 95.847656 141.824219 95.730469 L 186.835938 94.609375 C 187.707031 94.589844 188.398438 93.855469 188.363281 92.980469 L 188.210938 89.121094 Z M 67.949219 118.300781 L 66.6875 117.144531 L 68.160156 111.792969 Z M 73.84375 118.882812 L 74.050781 108.566406 L 75.453125 114.472656 Z M 82.300781 117.890625 L 82.507812 107.574219 L 83.882812 107.933594 Z M 64.34375 107.902344 L 63.300781 117.890625 L 63.300781 106.410156 L 90.359375 105.695312 Z M 91.972656 118.882812 L 93.011719 107.824219 L 94.050781 118.300781 Z M 94.902344 106.472656 L 92.238281 105.695312 L 108.5 104.535156 Z M 110.464844 116.429688 L 104.59375 115.941406 L 109.617188 115.042969 L 110.46875 104.03125 L 110.46875 116.425781 Z M 186.488281 92.433594 L 185.277344 90.417969 L 150.710938 90.113281 L 186.488281 89.308594 Z M 186.488281 92.433594 " fill-opacity="1" fill-rule="nonzero"/></svg>